<svg version="1.1" id="Layer_1" xmlns="http://www.w3.org/2000/svg" xmlns:xlink="http://www.w3.org/1999/xlink" x="0px" y="0px"
	 width="100%" viewBox="0 0 172 148" enable-background="new 0 0 172 148" xml:space="preserve">
<path fill="#7A1913" opacity="1.000000" stroke="none" 
	d="
M117.000000,1.000000 
	C135.635208,1.000000 154.270416,1.000000 172.952820,1.000000 
	C172.952820,50.218700 172.952820,99.437462 172.952820,149.000000 
	C154.647202,149.000000 136.292267,149.000000 117.603271,148.676941 
	C120.890694,146.118668 124.512154,143.883469 128.296997,141.551086 
	C128.699921,141.352921 128.915390,141.214401 129.347595,140.999847 
	C129.588409,140.961319 129.962128,140.647888 130.278717,140.547745 
	C144.035004,132.681000 152.965118,121.087791 159.054291,106.871216 
	C159.140320,106.731567 159.147186,106.403572 159.351761,106.119827 
	C160.017059,104.546371 160.477783,103.256668 161.042023,101.741875 
	C161.260925,101.190201 161.256317,100.865326 161.347244,100.270782 
	C161.706055,99.332672 161.849335,98.665924 162.072571,97.892044 
	C162.152512,97.784897 162.159454,97.517616 162.406097,97.231796 
	C162.804901,95.971245 162.957031,94.996498 163.073074,94.021866 
	C163.036987,94.021973 163.081055,94.079124 163.319427,93.814331 
	C163.934723,91.703857 164.311646,89.858185 164.764923,87.683838 
	C164.843445,86.906670 164.845596,86.458176 164.988892,85.686829 
	C165.144928,84.218643 165.159821,83.073318 165.359741,81.500481 
	C167.372772,53.210445 157.368683,30.382999 135.783981,12.863615 
	C130.074356,8.229362 123.290565,4.918520 117.000000,1.000000 
z"/>
<path fill="#7A1913" opacity="1.000000" stroke="none" 
	d="
M57.000000,149.000000 
	C38.364788,149.000000 19.729574,149.000000 1.047181,149.000000 
	C1.047181,99.781288 1.047181,50.562515 1.047181,1.000000 
	C19.352797,1.000000 37.707741,1.000000 56.365883,1.308831 
	C45.782158,6.929986 35.452785,12.995724 27.627636,22.962595 
	C22.840265,30.684717 18.370478,38.318741 13.672064,46.222633 
	C5.048297,69.350410 6.128725,91.545815 18.166615,113.290298 
	C18.754280,114.264801 19.267353,114.929329 19.738804,115.687317 
	C19.697178,115.780769 19.831097,115.935478 19.879185,116.237061 
	C20.272865,117.026955 20.618458,117.515259 20.970421,118.010147 
	C20.976788,118.016739 20.983871,118.033630 21.071335,118.282593 
	C21.417122,118.764084 21.675446,118.996605 22.002201,119.488907 
	C22.395985,120.163849 22.721331,120.579002 23.142069,121.317848 
	C28.110743,126.500801 32.984024,131.360046 37.904999,136.181732 
	C37.952686,136.144150 37.876404,136.049698 37.950935,136.326691 
	C38.326275,136.829773 38.627075,137.055862 39.122383,137.543427 
	C43.733971,140.560486 48.151054,143.316071 52.534359,146.112701 
	C52.500584,146.153732 52.601669,146.127731 52.934864,146.320663 
	C54.008934,146.693359 54.749809,146.873123 55.706436,147.257050 
	C56.278500,147.623718 56.634819,147.786224 56.993156,147.974976 
	C56.995178,148.001236 57.042812,147.977982 57.051407,148.234283 
	C57.039997,148.660400 57.020000,148.830200 57.000000,149.000000 
z"/>
<path fill="#7D1A14" opacity="1.000000" stroke="none" 
	d="
M107.000000,149.000000 
	C93.979103,149.000000 80.958214,149.000000 67.290955,148.712067 
	C64.470322,147.531601 62.296043,146.639053 59.840015,145.550995 
	C54.112103,142.552429 48.665947,139.749405 43.049202,136.724915 
	C42.568703,136.304016 42.258793,136.104553 41.786255,135.678802 
	C40.880398,134.914825 40.137173,134.377121 39.235054,133.536407 
	C34.441685,128.366257 29.807209,123.499138 25.070080,118.298676 
	C24.360258,116.973778 23.753090,115.982224 23.319172,114.748352 
	C23.599773,114.126396 23.707127,113.746742 23.974060,113.006256 
	C25.089783,110.096024 26.045921,107.546638 27.325125,104.998444 
	C28.078966,105.000854 28.509743,105.002068 29.084002,105.169907 
	C29.608868,105.548233 29.990252,105.759926 30.746199,106.129105 
	C32.665165,106.286591 34.209568,106.286591 35.323334,106.286591 
	C37.306232,103.418274 33.584316,98.587662 38.837830,98.008171 
	C42.138866,97.644051 41.420296,100.713287 41.033745,102.873947 
	C39.960773,103.969917 39.263550,105.007988 38.566322,106.046059 
	C40.051479,107.017952 41.536636,107.989853 43.347488,108.982185 
	C44.451279,109.332985 45.229378,109.663338 46.005272,110.328583 
	C46.003056,111.109978 46.003052,111.556473 46.000946,112.251190 
	C45.998840,112.499405 45.995388,112.995827 45.597412,112.995331 
	C42.324825,111.846146 39.450218,110.697456 36.403316,109.479912 
	C36.259830,109.883461 35.156490,111.483414 35.559231,112.100639 
	C37.963749,115.785721 40.043137,120.405731 43.549480,122.435707 
	C46.739632,124.282616 50.129520,125.016518 51.364658,129.046478 
	C51.594437,129.796204 52.749653,130.341827 53.573032,130.816360 
	C57.220001,132.918213 60.901711,134.959778 64.570847,137.023178 
	C65.389000,137.732086 66.817062,137.115219 68.250702,137.101974 
	C79.186722,137.001038 90.126236,137.149017 101.059654,136.947586 
	C107.357994,136.831558 113.698326,136.508545 118.018921,130.629379 
	C118.934944,129.382919 120.758156,128.819595 122.124771,127.885063 
	C128.778610,123.334976 134.784210,118.238770 137.162399,109.781136 
	C137.857529,109.072258 138.372314,108.568802 139.251373,108.081047 
	C141.358429,109.693726 143.992081,110.999817 144.631195,112.957153 
	C145.546234,115.759590 145.004028,119.037842 145.066452,122.080627 
	C145.048843,122.048340 145.114761,122.015686 144.903381,122.200722 
	C144.462875,122.886078 144.233765,123.386398 143.897827,123.978897 
	C143.791016,124.071075 143.508865,124.067528 143.232285,124.188965 
	C142.646423,124.563377 142.337143,124.816360 142.149521,125.090622 
	C142.271164,125.111893 142.235794,125.356331 141.928833,125.189644 
	C140.562531,124.182892 139.503174,123.342827 138.210495,122.317734 
	C138.210495,124.985382 138.210495,127.125793 138.271118,129.272583 
	C138.331757,129.278946 138.322601,129.400558 137.906311,129.299149 
	C135.328384,129.462280 133.166779,129.726822 130.894897,129.865845 
	C130.565140,129.735046 130.345642,129.729736 130.126160,129.724411 
	C130.414047,129.819473 130.701935,129.914536 131.060394,130.344513 
	C131.808594,131.884171 132.486221,133.088898 132.972916,134.531097 
	C131.815628,135.747314 130.849289,136.726074 129.558258,137.854797 
	C121.822380,141.669830 114.411194,145.334915 107.000000,149.000000 
z"/>
<path fill="#617886" opacity="1.000000" stroke="none" 
	d="
M116.541931,1.000000 
	C123.290565,4.918520 130.074356,8.229362 135.783981,12.863615 
	C157.368683,30.382999 167.372772,53.210445 165.037369,81.427383 
	C164.021194,80.211662 163.287949,78.674400 163.052200,77.064301 
	C162.612595,74.061798 162.462280,71.016953 161.962372,67.649124 
	C161.512527,66.693657 161.148148,66.091515 161.092392,65.462029 
	C159.809113,50.972183 154.745407,38.174908 144.272476,27.757980 
	C144.233856,27.753017 144.224091,27.675756 144.195892,27.334080 
	C138.635681,18.722456 130.977112,13.090010 121.809158,9.034483 
	C121.631142,8.960148 121.249565,8.903035 121.132355,8.561653 
	C116.010094,5.813515 111.005043,3.406758 106.000000,1.000000 
	C109.361290,1.000000 112.722572,1.000000 116.541931,1.000000 
z"/>
<path fill="#791A14" opacity="1.000000" stroke="none" 
	d="
M105.531342,1.000000 
	C111.005043,3.406758 116.010094,5.813515 120.678543,8.584528 
	C110.597054,8.309467 101.071701,5.648849 91.088257,6.820534 
	C85.440323,7.483392 79.582542,6.234618 73.813408,6.101599 
	C72.765968,6.077448 71.690102,7.286346 70.627357,7.926011 
	C70.700157,8.291832 70.772949,8.657653 70.845741,9.023474 
	C68.901428,8.676213 66.957115,8.328953 64.973038,7.915685 
	C64.933273,7.849677 64.748192,7.843838 64.748192,7.843838 
	C64.748192,7.843838 64.981628,8.013053 64.708115,8.224066 
	C62.182720,9.947056 59.559132,11.114156 57.763535,13.049471 
	C54.857376,16.181765 51.832150,16.756180 48.116051,15.060133 
	C46.933647,14.520478 45.728622,14.030391 44.657486,13.197023 
	C45.135178,12.537462 45.430885,12.069608 45.852123,11.878611 
	C53.892586,8.232938 61.947826,4.619845 70.000000,1.000000 
	C81.687561,1.000000 93.375122,1.000000 105.531342,1.000000 
z"/>
<path fill="#607884" opacity="1.000000" stroke="none" 
	d="
M69.536819,1.000000 
	C61.947826,4.619845 53.892586,8.232938 45.852123,11.878611 
	C45.430885,12.069608 45.135178,12.537462 44.659500,13.216396 
	C44.537968,13.556366 44.559143,13.589563 44.244194,13.589302 
	C42.909241,14.323791 41.889236,15.058539 40.876930,15.806908 
	C40.884628,15.820527 40.870068,15.848223 40.557487,15.968813 
	C35.815823,20.392372 31.386740,24.695339 26.771542,28.740810 
	C27.038691,26.613707 27.491953,24.744102 27.945217,22.874496 
	C35.452785,12.995724 45.782158,6.929986 56.834541,1.308831 
	C61.024544,1.000000 65.049088,1.000000 69.536819,1.000000 
z"/>
<path fill="#5C8190" opacity="1.000000" stroke="none" 
	d="
M107.454109,149.000000 
	C114.411194,145.334915 121.822380,141.669830 129.590820,138.222519 
	C129.952774,139.176163 129.957443,139.912018 129.962128,140.647888 
	C129.962128,140.647888 129.588409,140.961319 129.160339,141.063934 
	C128.491760,141.276260 128.292206,141.436829 128.133621,141.648270 
	C124.512154,143.883469 120.890694,146.118668 117.134613,148.676941 
	C113.969406,149.000000 110.938812,149.000000 107.454109,149.000000 
z"/>
<path fill="#5E7583" opacity="1.000000" stroke="none" 
	d="
M60.121769,145.746521 
	C62.296043,146.639053 64.470322,147.531601 66.822296,148.712067 
	C63.969406,149.000000 60.938816,149.000000 57.454109,149.000000 
	C57.020000,148.830200 57.039997,148.660400 57.338589,148.092972 
	C58.452042,147.045731 59.286903,146.396133 60.121769,145.746521 
z"/>
<path fill="#617887" opacity="1.000000" stroke="none" 
	d="
M130.278717,140.547745 
	C129.957443,139.912018 129.952774,139.176163 129.915512,138.072571 
	C130.849289,136.726074 131.815628,135.747314 133.262390,134.363556 
	C135.269409,132.439224 136.796005,130.919891 138.322601,129.400558 
	C138.322601,129.400558 138.331757,129.278946 138.602539,129.236542 
	C139.994141,127.914871 141.114960,126.635597 142.235794,125.356331 
	C142.235794,125.356331 142.271164,125.111893 142.471786,125.068298 
	C142.951233,124.705650 143.230042,124.386589 143.508865,124.067528 
	C143.508865,124.067528 143.791016,124.071075 144.149017,123.841293 
	C144.709595,123.079575 144.912170,122.547630 145.114761,122.015686 
	C145.114761,122.015686 145.048843,122.048340 145.381378,121.943024 
	C149.362656,116.045097 153.011414,110.252495 156.783875,104.802101 
	C157.594452,105.766495 158.281342,106.388687 158.968246,107.010880 
	C152.965118,121.087791 144.035004,132.681000 130.278717,140.547745 
z"/>
<path fill="#627683" opacity="1.000000" stroke="none" 
	d="
M162.191559,67.989723 
	C162.462280,71.016953 162.612595,74.061798 163.052200,77.064301 
	C163.287949,78.674400 164.021194,80.211662 164.852325,81.854889 
	C165.159821,83.073318 165.144928,84.218643 164.669662,85.711426 
	C163.214020,87.043640 162.218765,88.028412 161.207947,88.572929 
	C161.525452,81.418365 161.858505,74.704041 162.191559,67.989723 
z"/>
<path fill="#5B7B88" opacity="1.000000" stroke="none" 
	d="
M161.223495,89.013176 
	C162.218765,88.028412 163.214020,87.043640 164.528534,86.034271 
	C164.845596,86.458176 164.843445,86.906670 164.458817,87.853851 
	C163.744583,90.261391 163.412811,92.170258 163.081055,94.079124 
	C163.081055,94.079124 163.036987,94.021973 162.834717,94.308495 
	C162.474777,95.569214 162.317123,96.543419 162.159454,97.517616 
	C162.159454,97.517616 162.152512,97.784897 161.868423,98.166153 
	C161.433472,99.212326 161.282593,99.877243 161.131714,100.542160 
	C161.256317,100.865326 161.260925,101.190201 160.838730,101.475471 
	C160.060379,99.961578 159.588837,98.488991 159.156342,96.740036 
	C159.405396,95.962021 159.615433,95.460388 160.078735,94.687881 
	C160.521637,93.203537 160.711243,91.990059 160.898804,90.473557 
	C161.005661,89.784752 161.114578,89.398964 161.223495,89.013176 
z"/>
<path fill="#5B7B88" opacity="1.000000" stroke="none" 
	d="
M159.054291,106.871223 
	C158.281342,106.388687 157.594452,105.766495 156.778595,104.447937 
	C157.187012,102.172684 157.724426,100.593819 158.431183,99.373940 
	C158.782761,101.956482 158.964981,104.180023 159.147186,106.403572 
	C159.147186,106.403572 159.140320,106.731567 159.054291,106.871223 
z"/>
<path fill="#627683" opacity="1.000000" stroke="none" 
	d="
M159.351761,106.119827 
	C158.964981,104.180023 158.782761,101.956482 158.371613,99.072113 
	C158.467560,97.946335 158.792435,97.481369 159.117294,97.016403 
	C159.588837,98.488991 160.060379,99.961578 160.735229,101.700569 
	C160.477783,103.256668 160.017059,104.546371 159.351761,106.119827 
z"/>
<path fill="#627683" opacity="1.000000" stroke="none" 
	d="
M163.319427,93.814331 
	C163.412811,92.170258 163.744583,90.261391 164.382477,88.182510 
	C164.311646,89.858185 163.934723,91.703857 163.319427,93.814331 
z"/>
<path fill="#627683" opacity="1.000000" stroke="none" 
	d="
M162.406097,97.231796 
	C162.317123,96.543419 162.474777,95.569214 162.870789,94.308388 
	C162.957031,94.996498 162.804901,95.971245 162.406097,97.231796 
z"/>
<path fill="#627683" opacity="1.000000" stroke="none" 
	d="
M161.347244,100.270782 
	C161.282593,99.877243 161.433472,99.212326 161.788483,98.273300 
	C161.849335,98.665924 161.706055,99.332672 161.347244,100.270782 
z"/>
<path fill="#617887" opacity="1.000000" stroke="none" 
	d="
M128.296997,141.551086 
	C128.292206,141.436829 128.491760,141.276260 128.919525,141.102448 
	C128.915390,141.214401 128.699921,141.352921 128.296997,141.551086 
z"/>
<path fill="#5D7B87" opacity="1.000000" stroke="none" 
	d="
M23.145922,114.990669 
	C23.753090,115.982224 24.360258,116.973778 24.970461,118.627548 
	C24.331223,119.857895 23.688951,120.426018 23.046680,120.994148 
	C22.721331,120.579002 22.395985,120.163849 21.890648,119.254349 
	C21.468397,118.517868 21.226135,118.275749 20.983871,118.033630 
	C20.983871,118.033630 20.976788,118.016739 20.918449,117.711823 
	C20.517107,116.916428 20.174101,116.425957 19.831097,115.935478 
	C19.831097,115.935478 19.697178,115.780769 19.727428,115.339401 
	C19.202463,114.258789 18.647243,113.619560 18.092026,112.980331 
	C6.128725,91.545815 5.048297,69.350410 14.006025,46.179337 
	C15.421562,45.588268 16.274511,45.310371 17.092354,45.406879 
	C16.682867,47.475063 16.308491,49.168839 15.719981,51.122337 
	C15.293000,52.245239 15.080153,53.108410 14.905148,53.971466 
	C14.942989,53.971344 14.897148,53.911118 14.632836,54.186779 
	C11.297417,66.693024 10.350098,78.951309 13.855637,91.657372 
	C16.541176,99.054665 19.259659,106.062668 22.019876,113.307205 
	C22.423048,114.026054 22.784485,114.508362 23.145922,114.990669 
z"/>
<path fill="#5F7680" opacity="1.000000" stroke="none" 
	d="
M17.127464,45.032471 
	C16.274511,45.310371 15.421562,45.588268 14.234651,45.909466 
	C18.370478,38.318741 22.840265,30.684717 27.627636,22.962595 
	C27.491953,24.744102 27.038691,26.613707 26.684513,29.069609 
	C23.564888,34.781429 20.346176,39.906952 17.127464,45.032471 
z"/>
<path fill="#607882" opacity="1.000000" stroke="none" 
	d="
M59.840015,145.550995 
	C59.286903,146.396133 58.452042,147.045731 57.329994,147.836670 
	C57.042812,147.977982 56.995178,148.001236 56.772522,147.783295 
	C56.196804,147.394531 55.843746,147.223709 55.490688,147.052887 
	C54.749809,146.873123 54.008934,146.693359 52.922211,146.330673 
	C52.576363,146.147751 52.568134,146.071655 52.568134,146.071655 
	C48.151054,143.316071 43.733971,140.560486 38.991905,137.302094 
	C38.403416,136.549423 38.139912,136.299561 37.876404,136.049698 
	C37.876404,136.049698 37.952686,136.144150 37.875420,135.897827 
	C38.330082,135.047485 38.862015,134.443451 39.393944,133.839432 
	C40.137173,134.377121 40.880398,134.914825 41.963554,135.893219 
	C42.608921,136.538086 42.914356,136.742218 43.219788,136.946365 
	C48.665947,139.749405 54.112103,142.552429 59.840015,145.550995 
z"/>
<path fill="#62747E" opacity="1.000000" stroke="none" 
	d="
M39.235054,133.536407 
	C38.862015,134.443451 38.330082,135.047485 37.827728,135.935394 
	C32.984024,131.360046 28.110743,126.500801 23.142071,121.317848 
	C23.688951,120.426018 24.331223,119.857895 25.073112,118.960892 
	C29.807209,123.499138 34.441685,128.366257 39.235054,133.536407 
z"/>
<path fill="#62747E" opacity="1.000000" stroke="none" 
	d="
M18.166615,113.290298 
	C18.647243,113.619560 19.202463,114.258789 19.769054,115.245941 
	C19.267353,114.929329 18.754280,114.264801 18.166615,113.290298 
z"/>
<path fill="#62747E" opacity="1.000000" stroke="none" 
	d="
M19.879185,116.237061 
	C20.174101,116.425957 20.517107,116.916428 20.912083,117.705231 
	C20.618458,117.515259 20.272865,117.026955 19.879185,116.237061 
z"/>
<path fill="#5E7583" opacity="1.000000" stroke="none" 
	d="
M52.534359,146.112701 
	C52.568134,146.071655 52.576363,146.147751 52.589016,146.137741 
	C52.601669,146.127731 52.500584,146.153732 52.534359,146.112701 
z"/>
<path fill="#62747E" opacity="1.000000" stroke="none" 
	d="
M37.950939,136.326691 
	C38.139912,136.299561 38.403416,136.549423 38.797398,137.040634 
	C38.627075,137.055862 38.326275,136.829773 37.950939,136.326691 
z"/>
<path fill="#5E7583" opacity="1.000000" stroke="none" 
	d="
M55.706436,147.257050 
	C55.843746,147.223709 56.196804,147.394531 56.770500,147.757050 
	C56.634819,147.786224 56.278500,147.623718 55.706436,147.257050 
z"/>
<path fill="#62747E" opacity="1.000000" stroke="none" 
	d="
M21.071337,118.282593 
	C21.226135,118.275749 21.468397,118.517868 21.822214,118.994560 
	C21.675446,118.996605 21.417122,118.764084 21.071337,118.282593 
z"/>
<path fill="#88211A" opacity="1.000000" stroke="none" 
	d="
M45.995388,112.995827 
	C45.995388,112.995827 45.998840,112.499405 46.294495,112.202415 
	C47.340366,111.531708 48.090584,111.157990 49.901733,110.255783 
	C47.795097,110.113998 46.901291,110.053841 46.007481,109.993690 
	C45.229378,109.663338 44.451279,109.332985 43.343258,108.617020 
	C43.014648,107.498940 43.015961,106.766449 43.380318,105.990326 
	C43.986050,105.923706 44.228737,105.900734 44.794800,105.985710 
	C47.087452,105.728531 49.056725,105.363419 51.382088,104.906265 
	C52.600731,103.994568 53.463291,103.174904 54.598625,102.582855 
	C60.171604,108.483307 62.154942,109.088997 66.879684,106.803375 
	C67.596802,109.037766 68.235565,110.922501 68.874329,112.807228 
	C69.353790,112.637154 69.833252,112.467079 70.312714,112.297005 
	C70.116104,110.699440 69.919502,109.101868 69.722900,107.504303 
	C70.029266,107.382530 70.335632,107.260757 70.642006,107.138977 
	C71.411980,108.087173 72.181953,109.035370 73.247696,110.116943 
	C74.361176,110.499229 75.178879,110.748146 75.886475,111.345551 
	C72.410812,117.923576 73.618507,119.960335 80.726852,119.995049 
	C84.365570,120.012817 88.058266,120.345573 91.618965,119.814514 
	C93.217628,119.576080 94.964226,117.818100 95.888222,116.292183 
	C96.766556,114.841667 96.659752,112.794617 96.992874,111.004929 
	C96.999626,111.000000 97.009300,110.986725 97.333084,110.936234 
	C99.537888,111.289619 101.418922,111.693504 103.633049,112.168907 
	C104.296135,111.286659 105.154350,110.144783 106.400696,109.073593 
	C110.863785,109.407028 114.971718,112.462364 119.423599,108.997498 
	C123.893364,108.993256 127.942223,108.991600 131.994812,108.994148 
	C131.998550,108.998352 132.005844,109.005859 132.059296,109.287216 
	C132.406265,110.049690 132.699783,110.530807 132.875977,111.327271 
	C127.373344,115.093933 121.754433,118.234741 116.657417,122.069283 
	C108.995682,127.833282 100.061424,130.403046 91.024338,130.696091 
	C82.055199,130.986923 72.944717,129.151291 64.032005,127.510643 
	C61.544693,127.052765 58.502220,124.394562 57.556725,122.014023 
	C56.178856,118.544868 53.825935,117.950851 50.960815,116.923607 
	C49.078255,116.248650 47.635242,114.347733 45.995388,112.995827 
z"/>
<path fill="#831D16" opacity="1.000000" stroke="none" 
	d="
M45.597412,112.995331 
	C47.635242,114.347733 49.078255,116.248650 50.960815,116.923607 
	C53.825935,117.950851 56.178856,118.544868 57.556725,122.014023 
	C58.502220,124.394562 61.544693,127.052765 64.032005,127.510643 
	C72.944717,129.151291 82.055199,130.986923 91.024338,130.696091 
	C100.061424,130.403046 108.995682,127.833282 116.657417,122.069283 
	C121.754433,118.234741 127.373344,115.093933 133.068237,111.182159 
	C133.621628,110.509430 133.831100,110.267426 134.378387,109.995895 
	C135.494385,109.992920 136.238220,109.989738 136.982056,109.986565 
	C134.784210,118.238770 128.778610,123.334976 122.124771,127.885063 
	C120.758156,128.819595 118.934944,129.382919 118.018921,130.629379 
	C113.698326,136.508545 107.357994,136.831558 101.059654,136.947586 
	C90.126236,137.149017 79.186722,137.001038 68.250702,137.101974 
	C66.817062,137.115219 65.389000,137.732086 64.570847,137.023178 
	C60.901711,134.959778 57.220001,132.918213 53.573032,130.816360 
	C52.749653,130.341827 51.594437,129.796204 51.364658,129.046478 
	C50.129520,125.016518 46.739632,124.282616 43.549480,122.435707 
	C40.043137,120.405731 37.963749,115.785721 35.559231,112.100639 
	C35.156490,111.483414 36.259830,109.883461 36.403316,109.479912 
	C39.450218,110.697456 42.324825,111.846146 45.597412,112.995331 
z"/>
<path fill="#791A14" opacity="1.000000" stroke="none" 
	d="
M159.156342,96.740036 
	C158.792435,97.481369 158.467560,97.946335 158.202255,98.713120 
	C157.724426,100.593819 157.187012,102.172684 156.654892,104.105728 
	C153.011414,110.252495 149.362656,116.045097 145.398987,121.975311 
	C145.004028,119.037842 145.546234,115.759590 144.631195,112.957153 
	C143.992081,110.999817 141.358429,109.693726 138.961517,107.965355 
	C137.897079,107.154755 137.486771,106.475555 137.402802,105.956741 
	C141.620224,108.409943 142.888321,105.053879 145.010422,103.067642 
	C145.641296,104.713112 145.944107,106.174568 146.296997,107.623833 
	C146.721039,109.365303 147.187759,111.096390 147.559265,112.534821 
	C150.011673,108.898582 152.005692,105.942009 154.215912,102.695648 
	C154.952576,98.604843 155.473068,94.803825 155.994720,90.549408 
	C155.732803,86.959602 155.279068,83.825172 155.246445,80.686356 
	C155.179245,74.217827 153.973450,67.322113 155.816833,61.406319 
	C157.401154,56.321892 156.947968,53.381199 153.224884,50.493355 
	C150.811295,48.621235 149.060837,46.909672 148.689026,43.402863 
	C148.360123,40.300865 146.689331,36.934490 144.636261,34.510338 
	C140.873840,30.067865 136.355240,26.271301 132.236481,22.121517 
	C131.101929,20.978428 129.684296,19.652750 129.401245,18.213295 
	C128.480209,13.529253 125.869835,12.814286 121.987175,14.718047 
	C121.987175,12.582136 121.987175,10.845477 121.987175,9.108818 
	C130.977112,13.090010 138.635681,18.722456 143.952301,27.455490 
	C143.132370,27.962841 142.527832,28.007101 141.923309,28.051361 
	C142.397736,28.481913 142.872177,28.912464 143.346603,29.343016 
	C143.668106,28.816324 143.989594,28.289633 144.311096,27.762941 
	C154.745407,38.174908 159.809113,50.972183 161.092392,65.462029 
	C161.148148,66.091515 161.512527,66.693657 161.962357,67.649124 
	C161.858505,74.704041 161.525452,81.418365 161.207947,88.572929 
	C161.114578,89.398964 161.005661,89.784752 160.692490,90.774574 
	C160.267303,92.571983 160.046371,93.765366 159.825439,94.958748 
	C159.615433,95.460388 159.405396,95.962021 159.156342,96.740036 
z"/>
<path fill="#F2ECE7" opacity="1.000000" stroke="none" 
	d="
M51.025997,104.998299 
	C49.056725,105.363419 47.087452,105.728531 44.747688,105.617859 
	C43.584328,104.386223 42.791462,103.630379 41.859726,102.775223 
	C41.720856,102.675911 41.409485,102.816048 41.409485,102.816048 
	C41.420296,100.713287 42.138866,97.644051 38.837830,98.008171 
	C33.584316,98.587662 37.306232,103.418274 35.323334,106.286591 
	C34.209568,106.286591 32.665165,106.286591 30.790588,105.664070 
	C30.468534,102.581642 30.397911,100.118446 30.500259,97.662468 
	C30.757206,91.496689 31.092369,85.334160 31.535202,79.279648 
	C31.674242,79.388969 31.950846,79.168442 32.383919,79.278503 
	C35.452568,79.321564 38.088146,79.254562 41.024055,79.348549 
	C42.222618,79.611374 43.120842,79.713211 44.386841,79.937103 
	C46.800865,81.635201 50.012863,82.842628 50.651920,84.863640 
	C52.003597,89.138275 50.570610,93.203140 45.797249,95.269478 
	C47.668823,98.751801 49.347412,101.875053 51.025997,104.998299 
M36.081024,90.221672 
	C37.980282,94.493629 40.788792,91.424545 42.948689,90.739647 
	C43.876396,90.445473 44.840073,87.028587 44.639324,86.905685 
	C42.280598,85.461578 39.703640,84.373932 36.097530,82.682640 
	C36.097530,86.111084 36.097530,87.726791 36.081024,90.221672 
z"/>
<path fill="#791A14" opacity="1.000000" stroke="none" 
	d="
M21.978142,113.070663 
	C19.259659,106.062668 16.541176,99.054665 13.887913,91.168015 
	C13.873427,85.838745 13.598211,81.380753 13.765924,76.939484 
	C13.954846,71.936493 14.542794,66.948578 15.187846,62.285500 
	C15.925566,72.644768 16.432619,82.672646 16.948374,92.872597 
	C16.732666,92.853889 17.687843,92.936745 18.887365,93.040802 
	C15.750436,97.486610 16.817686,100.748718 22.441359,103.772255 
	C23.310753,101.469345 24.155077,99.232841 25.344997,97.147812 
	C26.127752,99.865273 26.564907,102.431259 27.002060,104.997253 
	C26.045921,107.546638 25.089783,110.096024 23.666941,112.965157 
	C22.792873,113.213493 22.385508,113.142082 21.978142,113.070663 
z"/>
<path fill="#7B2013" opacity="1.000000" stroke="none" 
	d="
M27.325125,104.998444 
	C26.564907,102.431259 26.127752,99.865273 25.345087,96.682404 
	C25.001457,92.732887 24.659136,89.349464 25.140480,86.087578 
	C25.408686,84.270065 27.047632,82.654831 28.294857,81.298843 
	C28.660755,89.433922 28.800638,97.218597 28.940519,105.003281 
	C28.509743,105.002068 28.078966,105.000854 27.325125,104.998444 
M27.944298,85.266052 
	C27.791336,85.017059 27.638372,84.768066 27.485407,84.519073 
	C27.375334,84.628143 27.173136,84.734467 27.169790,84.846718 
	C27.143473,85.729393 27.155186,86.613213 27.155186,87.496674 
	C27.353468,87.506081 27.551750,87.515480 27.750032,87.524887 
	C27.825172,86.937332 27.900312,86.349770 27.944298,85.266052 
z"/>
<path fill="#6C0705" opacity="1.000000" stroke="none" 
	d="
M29.084002,105.169907 
	C28.800638,97.218597 28.660755,89.433922 28.278015,80.957214 
	C28.015976,79.808205 27.996796,79.351219 28.211559,78.884445 
	C28.445501,78.874649 28.910063,78.815636 29.322304,78.891022 
	C30.288420,79.034393 30.842293,79.102364 31.396164,79.170334 
	C31.092369,85.334160 30.757206,91.496689 30.500259,97.662468 
	C30.397911,100.118446 30.468534,102.581642 30.416023,105.506584 
	C29.990252,105.759926 29.608868,105.548233 29.084002,105.169907 
z"/>
<path fill="#88211A" opacity="1.000000" stroke="none" 
	d="
M137.076447,105.796349 
	C137.486771,106.475555 137.897079,107.154755 138.597244,107.949654 
	C138.372314,108.568802 137.857529,109.072258 137.162399,109.781136 
	C136.238220,109.989738 135.494385,109.992920 134.170731,109.799286 
	C133.062561,109.403603 132.534195,109.204727 132.005844,109.005859 
	C132.005844,109.005859 131.998550,108.998352 132.064148,108.637199 
	C133.126266,106.085014 134.122757,103.893982 135.441406,101.846085 
	C136.201187,103.258278 136.638824,104.527313 137.076447,105.796349 
z"/>
<path fill="#831D16" opacity="1.000000" stroke="none" 
	d="
M41.033745,102.873947 
	C41.409485,102.816048 41.720856,102.675911 41.874039,103.117165 
	C42.357239,104.383598 42.687260,105.208786 43.017277,106.033966 
	C43.015961,106.766449 43.014648,107.498940 43.017567,108.596588 
	C41.536636,107.989853 40.051479,107.017952 38.566322,106.046059 
	C39.263550,105.007988 39.960773,103.969917 41.033745,102.873947 
z"/>
<path fill="#791A14" opacity="1.000000" stroke="none" 
	d="
M137.906311,129.299149 
	C136.796005,130.919891 135.269409,132.439224 133.453323,134.126099 
	C132.486221,133.088898 131.808594,131.884171 131.065186,130.340012 
	C130.999390,130.000595 131.005157,129.991364 131.005157,129.991364 
	C133.166779,129.726822 135.328384,129.462280 137.906311,129.299149 
z"/>
<path fill="#791A14" opacity="1.000000" stroke="none" 
	d="
M141.928833,125.189644 
	C141.114960,126.635597 139.994141,127.914871 138.541901,129.230164 
	C138.210495,127.125793 138.210495,124.985382 138.210495,122.317734 
	C139.503174,123.342827 140.562531,124.182892 141.928833,125.189644 
z"/>
<path fill="#831D16" opacity="1.000000" stroke="none" 
	d="
M46.005272,110.328583 
	C46.901291,110.053841 47.795097,110.113998 49.901733,110.255783 
	C48.090584,111.157990 47.340366,111.531708 46.296600,111.954201 
	C46.003052,111.556473 46.003056,111.109978 46.005272,110.328583 
z"/>
<path fill="#62747E" opacity="1.000000" stroke="none" 
	d="
M22.019878,113.307205 
	C22.385508,113.142082 22.792873,113.213493 23.507359,113.326004 
	C23.707127,113.746742 23.599773,114.126396 23.319172,114.748352 
	C22.784485,114.508362 22.423048,114.026054 22.019878,113.307205 
z"/>
<path fill="#791A14" opacity="1.000000" stroke="none" 
	d="
M144.903381,122.200722 
	C144.912170,122.547630 144.709595,123.079575 144.255829,123.749123 
	C144.233765,123.386398 144.462875,122.886078 144.903381,122.200722 
z"/>
<path fill="#791A14" opacity="1.000000" stroke="none" 
	d="
M130.994598,130.005096 
	C130.701935,129.914536 130.414047,129.819473 130.126160,129.724411 
	C130.345642,129.729736 130.565140,129.735046 130.894897,129.865860 
	C131.005157,129.991364 130.999390,130.000595 130.994598,130.005096 
z"/>
<path fill="#62747E" opacity="1.000000" stroke="none" 
	d="
M43.049202,136.724915 
	C42.914356,136.742218 42.608921,136.538086 42.126186,136.119522 
	C42.258793,136.104553 42.568703,136.304016 43.049202,136.724915 
z"/>
<path fill="#791A14" opacity="1.000000" stroke="none" 
	d="
M143.232285,124.188965 
	C143.230042,124.386589 142.951233,124.705650 142.350143,125.047028 
	C142.337143,124.816360 142.646423,124.563377 143.232285,124.188965 
z"/>
<path fill="#801B14" opacity="1.000000" stroke="none" 
	d="
M121.809158,9.034483 
	C121.987175,10.845477 121.987175,12.582136 121.987175,14.718047 
	C125.869835,12.814286 128.480209,13.529253 129.401245,18.213295 
	C129.684296,19.652750 131.101929,20.978428 132.236481,22.121517 
	C136.355240,26.271301 140.873840,30.067865 144.636261,34.510338 
	C146.689331,36.934490 148.360123,40.300865 148.689026,43.402863 
	C149.060837,46.909672 150.811295,48.621235 153.224884,50.493355 
	C156.947968,53.381199 157.401154,56.321892 155.816833,61.406319 
	C153.973450,67.322113 155.179245,74.217827 155.246445,80.686356 
	C155.279068,83.825172 155.732803,86.959602 155.745667,90.549866 
	C155.495453,91.003716 154.997208,91.006355 154.807373,91.146896 
	C154.377213,91.494720 154.171021,91.731712 153.623352,91.990761 
	C152.158386,90.977417 151.069031,89.971733 150.096008,88.741745 
	C149.804581,87.343536 149.396805,86.169617 149.273346,84.801086 
	C149.882721,83.578117 150.564911,82.514961 150.468704,81.527657 
	C150.120575,77.954720 149.254517,74.421333 149.058609,70.847000 
	C148.745209,65.128937 149.913742,59.269890 146.023376,54.097481 
	C145.086243,52.851524 145.481140,50.603127 145.265152,48.815517 
	C145.131744,47.711285 145.396515,46.289074 144.805466,45.554008 
	C141.095306,40.939724 137.950577,35.315323 133.190857,32.222950 
	C124.811592,26.778980 119.426666,16.203257 107.554733,16.501259 
	C107.410049,16.504889 107.228722,16.388231 107.119598,16.274740 
	C103.437592,12.445548 98.676773,13.065569 94.026093,12.968926 
	C86.894302,12.820728 79.767998,12.414247 72.636322,12.249321 
	C71.376007,12.220176 70.013168,12.645290 68.847656,13.184708 
	C63.813568,15.514571 58.821186,17.936552 53.849991,20.398439 
	C52.989574,20.824545 52.303341,21.603552 51.539246,22.222754 
	C49.387363,23.966583 47.466328,26.202532 45.031849,27.341681 
	C41.403641,29.039400 39.396576,31.272228 39.558502,35.377167 
	C38.271152,35.637833 37.291649,35.888226 35.978981,36.069660 
	C31.517494,35.108749 32.863956,32.730793 34.311901,30.583570 
	C37.372108,26.045435 41.216648,21.891039 40.870068,15.848223 
	C40.870068,15.848223 40.884628,15.820527 41.193188,15.984430 
	C44.201832,17.303928 45.148300,16.364182 44.559143,13.589563 
	C44.559143,13.589563 44.537968,13.556366 44.535957,13.536994 
	C45.728622,14.030391 46.933647,14.520478 48.116051,15.060133 
	C51.832150,16.756180 54.857376,16.181765 57.763535,13.049471 
	C59.559132,11.114156 62.182720,9.947056 64.717056,8.217366 
	C64.999512,7.999652 65.012802,7.981693 65.012802,7.981692 
	C66.957115,8.328953 68.901428,8.676213 70.845741,9.023474 
	C70.772949,8.657653 70.700157,8.291832 70.627357,7.926011 
	C71.690102,7.286346 72.765968,6.077448 73.813408,6.101599 
	C79.582542,6.234618 85.440323,7.483392 91.088257,6.820534 
	C101.071701,5.648849 110.597054,8.309467 120.795761,8.925909 
	C121.249565,8.903035 121.631142,8.960148 121.809158,9.034483 
M153.501450,56.471054 
	C153.501450,56.471054 153.517395,56.512981 153.501450,56.471054 
z"/>
<path fill="#801B14" opacity="1.000000" stroke="none" 
	d="
M64.990570,8.006352 
	C64.981628,8.013053 64.748192,7.843838 64.748192,7.843838 
	C64.748192,7.843838 64.933273,7.849677 64.973038,7.915685 
	C65.012802,7.981693 64.999512,7.999652 64.990570,8.006352 
z"/>
<path fill="#791A14" opacity="1.000000" stroke="none" 
	d="
M40.557487,15.968813 
	C41.216648,21.891039 37.372108,26.045435 34.311901,30.583570 
	C32.863956,32.730793 31.517494,35.108749 35.929459,36.418053 
	C35.187511,37.687141 34.161926,38.538872 33.043671,39.074352 
	C30.186932,37.886543 27.422855,37.014992 23.835018,35.883698 
	C24.661276,40.963673 25.208664,44.329109 25.756052,47.694542 
	C25.348873,47.486862 24.941694,47.279179 24.534513,47.071495 
	C23.356413,48.902870 21.404573,50.637962 21.162201,52.585773 
	C20.666363,56.570541 18.794130,58.155994 15.013391,57.614136 
	C14.970280,56.105644 14.933714,55.008381 14.897148,53.911118 
	C14.897148,53.911118 14.942989,53.971344 15.144735,53.726555 
	C15.542359,52.608711 15.738237,51.735664 15.934114,50.862614 
	C16.308491,49.168839 16.682867,47.475063 17.092354,45.406883 
	C20.346176,39.906952 23.564888,34.781429 26.870628,29.327106 
	C31.386740,24.695339 35.815823,20.392372 40.557487,15.968813 
z"/>
<path fill="#791A14" opacity="1.000000" stroke="none" 
	d="
M44.244194,13.589302 
	C45.148300,16.364182 44.201832,17.303928 41.185490,15.970812 
	C41.889236,15.058539 42.909241,14.323791 44.244194,13.589302 
z"/>
<path fill="#627683" opacity="1.000000" stroke="none" 
	d="
M160.078735,94.687881 
	C160.046371,93.765366 160.267303,92.571983 160.694550,91.077591 
	C160.711243,91.990059 160.521637,93.203537 160.078735,94.687881 
z"/>
<path fill="#731C21" opacity="1.000000" stroke="none" 
	d="
M14.632836,54.186779 
	C14.933714,55.008381 14.970280,56.105644 15.005381,58.007050 
	C14.988338,59.858829 14.972758,60.906467 14.957180,61.954102 
	C14.542794,66.948578 13.954846,71.936493 13.765924,76.939484 
	C13.598211,81.380753 13.873427,85.838745 13.920855,90.778717 
	C10.350098,78.951309 11.297417,66.693024 14.632836,54.186779 
z"/>
<path fill="#731C21" opacity="1.000000" stroke="none" 
	d="
M15.719982,51.122337 
	C15.738237,51.735664 15.542359,52.608711 15.106894,53.726673 
	C15.080153,53.108410 15.293000,52.245239 15.719982,51.122337 
z"/>
<path fill="#8E231B" opacity="1.000000" stroke="none" 
	d="
M51.382088,104.906265 
	C49.347412,101.875053 47.668823,98.751801 45.797249,95.269478 
	C50.570610,93.203140 52.003597,89.138275 50.651920,84.863640 
	C50.012863,82.842628 46.800865,81.635201 44.516418,79.634224 
	C45.571674,78.471687 46.865128,77.734093 49.126392,76.444595 
	C43.932365,75.167435 39.758022,74.141006 34.614983,72.876389 
	C37.827320,69.903175 40.408337,67.514282 43.304665,65.045479 
	C44.152607,64.642105 44.685238,64.318649 45.596169,64.012398 
	C47.031258,65.496300 48.394108,66.834267 49.077103,68.458183 
	C50.266613,71.286415 51.000278,74.354591 55.479282,71.899612 
	C57.604832,71.681480 59.329258,71.409782 61.147182,71.123352 
	C61.294010,68.244804 61.423126,65.713608 61.556629,63.096355 
	C68.905823,65.063408 69.661995,64.765640 73.787163,58.834541 
	C75.231720,59.259651 76.279152,59.580620 77.523827,59.982674 
	C77.971855,60.255253 78.076782,60.507439 78.120743,61.148750 
	C78.902336,61.952911 79.599014,62.428638 80.489563,62.912041 
	C80.683434,62.919720 80.976952,63.173546 81.187439,63.326225 
	C81.718430,63.605659 82.038933,63.732422 82.548965,63.846729 
	C82.738487,63.834274 83.038818,64.066879 83.160675,64.390915 
	C87.241463,64.131111 91.200401,63.547279 95.374313,63.097092 
	C96.049080,63.451149 96.508881,63.671558 97.204193,64.212013 
	C98.824249,64.593552 100.208794,64.655045 102.029579,64.735916 
	C102.029579,59.273266 102.029579,54.334942 102.029579,49.274445 
	C103.932983,48.835316 105.464050,48.482090 107.008728,48.588299 
	C107.035797,53.009769 106.777176,57.001717 107.207787,60.917881 
	C107.361946,62.319843 109.181122,63.538723 110.585075,64.847351 
	C111.966354,64.550362 113.002899,64.247169 114.281097,63.967377 
	C114.522743,63.990765 115.006798,64.029114 115.005325,64.460358 
	C115.714027,66.870422 116.006393,70.223366 117.207222,70.588486 
	C122.213333,72.110611 120.807579,66.199112 123.194748,64.458641 
	C127.813522,67.362465 125.642105,78.685173 118.533714,84.101471 
	C119.864471,84.860649 121.017616,85.518501 122.148270,86.299736 
	C122.125778,86.423119 122.111565,86.673553 121.798218,86.634224 
	C120.800194,87.644478 120.115524,88.694061 119.229744,90.051949 
	C115.687271,84.011536 109.999329,86.724129 104.896698,85.876801 
	C100.889687,82.158859 101.384628,86.836601 99.991829,87.670334 
	C99.930809,85.214218 100.107285,83.109299 99.941437,81.031715 
	C99.685043,77.820099 98.575783,75.740753 94.841629,78.299034 
	C94.680145,78.333382 94.591064,78.015434 94.308945,78.183647 
	C93.674271,78.614334 93.321716,78.876808 92.988274,79.055450 
	C93.007393,78.971619 93.175247,79.008926 92.960625,79.195206 
	C92.518234,79.683815 92.290466,79.986145 92.104019,80.245193 
	C92.145348,80.201912 92.229416,80.287094 91.956573,80.431686 
	C88.596024,83.392120 92.622688,84.430077 93.108841,86.590179 
	C93.091499,86.831879 93.074890,87.316246 92.725555,87.592285 
	C89.842117,87.747459 86.430336,86.576462 84.997856,87.773689 
	C83.238998,89.243698 83.133713,92.692192 82.313614,95.285423 
	C81.859444,95.329704 81.405273,95.373985 80.951103,95.418266 
	C80.245605,93.408272 79.540108,91.398285 78.999725,89.114594 
	C80.844978,86.726151 80.022163,85.833519 77.705620,84.980942 
	C73.889000,83.576279 71.034950,85.717468 67.550720,86.876114 
	C57.992191,84.866417 53.908867,87.558357 53.151119,96.320236 
	C52.981342,98.283356 53.905380,100.341072 54.325851,102.355240 
	C53.463291,103.174904 52.600731,103.994568 51.382088,104.906265 
M46.298939,73.461929 
	C46.686169,73.577667 47.070122,73.708847 47.464165,73.792488 
	C47.523174,73.805016 47.629478,73.594742 47.713902,73.487534 
	C47.318577,73.391502 46.923252,73.295471 46.298939,73.461929 
M75.501015,83.523262 
	C75.501015,83.523262 75.493546,83.494553 75.501015,83.523262 
z"/>
<path fill="#8E231B" opacity="1.000000" stroke="none" 
	d="
M96.986115,111.009865 
	C96.659752,112.794617 96.766556,114.841667 95.888222,116.292183 
	C94.964226,117.818100 93.217628,119.576080 91.618965,119.814514 
	C88.058266,120.345573 84.365570,120.012817 80.726852,119.995049 
	C73.618507,119.960335 72.410812,117.923576 75.888184,111.347015 
	C76.000000,111.000000 75.999168,110.997185 76.433929,110.999062 
	C80.958679,111.519508 85.048660,112.038071 89.138649,112.556641 
	C89.221436,112.272507 89.304222,111.988373 89.387016,111.704239 
	C88.765587,111.338799 88.144157,110.973358 87.519836,110.606209 
	C88.577698,109.981918 89.663139,109.341354 90.748581,108.700790 
	C90.650581,108.472733 90.552582,108.244675 90.454590,108.016617 
	C88.637405,108.345192 86.820229,108.673775 85.002701,108.760452 
	C85.002342,108.518555 85.000542,108.034760 85.221031,107.741379 
	C85.595070,106.242607 85.748611,105.037224 85.923782,103.549805 
	C86.185776,102.797577 86.426140,102.327370 86.917557,102.077637 
	C87.605614,103.320526 88.042625,104.342941 88.755608,106.011002 
	C92.662582,98.095367 92.378517,95.995224 88.368256,93.633690 
	C88.939690,92.112740 89.365341,90.920471 89.916008,89.789047 
	C90.289612,89.021431 90.838699,88.339218 91.309311,87.618813 
	C91.873245,88.396095 92.437172,89.173378 92.924667,90.417992 
	C92.841507,94.855568 93.014877,98.836746 92.774849,102.792839 
	C92.556732,106.387917 93.948662,108.032547 97.864136,107.817337 
	C98.798431,107.532867 99.397758,107.261719 99.923676,106.724548 
	C100.662392,105.258766 101.474525,104.058990 102.536598,103.020844 
	C103.542084,104.085564 104.297630,104.988647 105.060677,106.228676 
	C105.382973,107.378052 105.697769,108.190475 106.012573,109.002899 
	C105.154350,110.144783 104.296135,111.286659 103.633049,112.168907 
	C101.418922,111.693504 99.537888,111.289619 97.294228,110.869797 
	C96.931595,110.853851 96.749825,110.846077 96.749825,110.846077 
	C96.749825,110.846077 96.986107,111.009865 96.986115,111.009865 
z"/>
<path fill="#ECE3DE" opacity="1.000000" stroke="none" 
	d="
M54.598629,102.582855 
	C53.905380,100.341072 52.981342,98.283356 53.151119,96.320236 
	C53.908867,87.558357 57.992191,84.866417 67.684174,87.215561 
	C69.419601,90.992393 70.656807,94.257523 72.310623,98.622131 
	C66.715866,98.622131 62.919064,98.622131 58.736126,98.622131 
	C60.519424,103.083015 63.553833,102.040993 66.460411,101.925079 
	C67.988297,101.864143 69.551941,102.700272 71.099434,103.131332 
	C70.969162,103.583603 70.838882,104.035873 70.708603,104.488144 
	C69.406181,105.143333 68.103752,105.798531 66.801323,106.453720 
	C62.154942,109.088997 60.171604,108.483307 54.598629,102.582855 
z"/>
<path fill="#7C1A14" opacity="1.000000" stroke="none" 
	d="
M66.879684,106.803375 
	C68.103752,105.798531 69.406181,105.143333 70.708603,104.488144 
	C70.838882,104.035873 70.969162,103.583603 71.099434,103.131332 
	C69.551941,102.700272 67.988297,101.864143 66.460411,101.925079 
	C63.553833,102.040993 60.519424,103.083015 58.736126,98.622131 
	C62.919064,98.622131 66.715866,98.622131 72.310623,98.622131 
	C70.656807,94.257523 69.419601,90.992393 68.048950,87.387810 
	C71.034950,85.717468 73.889000,83.576279 77.705620,84.980942 
	C80.022163,85.833519 80.844978,86.726151 78.740875,88.854721 
	C76.586174,87.838058 74.855431,86.807587 73.124680,85.777107 
	C72.729919,86.270256 72.335152,86.763397 71.940392,87.256538 
	C73.654579,92.151932 75.382866,97.042450 77.079369,101.943970 
	C79.171837,107.989540 81.307983,108.453522 85.902161,103.831841 
	C85.748611,105.037224 85.595070,106.242607 84.862007,107.741592 
	C83.160156,108.339867 82.037811,108.644539 80.597656,108.954247 
	C79.856438,108.974319 79.433029,108.989365 78.718201,108.810295 
	C76.850250,105.518715 75.273735,102.421257 73.697220,99.323799 
	C73.283470,99.423447 72.869720,99.523094 72.455971,99.622742 
	C72.966782,101.758942 73.477592,103.895142 73.988220,106.271957 
	C73.988045,106.512573 73.986389,106.993797 73.849571,107.281097 
	C73.459145,108.373451 73.205536,109.178505 72.951920,109.983566 
	C72.181953,109.035370 71.411980,108.087173 70.642006,107.138977 
	C70.335632,107.260757 70.029266,107.382530 69.722900,107.504303 
	C69.919502,109.101868 70.116104,110.699440 70.312714,112.297005 
	C69.833252,112.467079 69.353790,112.637154 68.874329,112.807228 
	C68.235565,110.922501 67.596802,109.037766 66.879684,106.803375 
z"/>
<path fill="#792019" opacity="1.000000" stroke="none" 
	d="
M135.119263,101.702942 
	C134.122757,103.893982 133.126266,106.085014 132.060425,108.632996 
	C127.942223,108.991600 123.893364,108.993256 119.422249,108.997452 
	C119.000000,109.000000 118.999596,108.997231 118.917480,108.609955 
	C118.435226,107.245712 118.035072,106.268738 117.733368,105.075607 
	C118.161209,104.549515 118.490608,104.239594 119.126053,103.942802 
	C119.635902,103.967987 119.839699,103.980026 120.049538,104.326782 
	C120.583740,105.510323 121.111908,106.359154 121.640076,107.207985 
	C122.455605,106.395615 123.271141,105.583252 124.404274,104.907043 
	C128.052277,107.889717 130.253479,107.259590 131.472519,102.980515 
	C131.738220,102.047905 132.582138,101.280014 133.593948,100.605072 
	C134.326141,100.861420 134.624115,100.948944 135.026337,101.186829 
	C135.130569,101.337189 135.119263,101.702950 135.119263,101.702942 
z"/>
<path fill="#93221B" opacity="1.000000" stroke="none" 
	d="
M73.988403,106.031349 
	C73.477592,103.895142 72.966782,101.758942 72.455971,99.622742 
	C72.869720,99.523094 73.283470,99.423447 73.697220,99.323799 
	C75.273735,102.421257 76.850250,105.518715 78.492188,109.012817 
	C77.704788,109.938698 76.851974,110.467941 75.999168,110.997185 
	C75.999168,110.997185 76.000000,111.000000 75.998291,110.998535 
	C75.178879,110.748146 74.361176,110.499229 73.247696,110.116943 
	C73.205536,109.178505 73.459145,108.373451 73.988190,107.176384 
	C74.171883,106.533363 74.080147,106.282356 73.988403,106.031349 
z"/>
<path fill="#8C2C20" opacity="1.000000" stroke="none" 
	d="
M106.400696,109.073593 
	C105.697769,108.190475 105.382973,107.378052 105.413681,106.350266 
	C108.842720,106.481461 111.926270,106.828018 115.140259,107.485710 
	C116.513672,108.196976 117.756630,108.597099 118.999596,108.997231 
	C118.999596,108.997231 119.000000,109.000000 119.001350,109.000046 
	C114.971718,112.462364 110.863785,109.407028 106.400696,109.073593 
z"/>
<path fill="#7D1A14" opacity="1.000000" stroke="none" 
	d="
M43.380318,105.990326 
	C42.687260,105.208786 42.357239,104.383598 42.012909,103.216476 
	C42.791462,103.630379 43.584328,104.386223 44.424309,105.509918 
	C44.228737,105.900734 43.986050,105.923706 43.380318,105.990326 
z"/>
<path fill="#7D1A14" opacity="1.000000" stroke="none" 
	d="
M132.059296,109.287216 
	C132.534195,109.204727 133.062561,109.403603 133.798553,109.799080 
	C133.831100,110.267426 133.621628,110.509430 133.185547,110.866806 
	C132.699783,110.530807 132.406265,110.049690 132.059296,109.287216 
z"/>
<path fill="#EFE4E1" opacity="1.000000" stroke="none" 
	d="
M135.441406,101.846092 
	C135.119263,101.702950 135.130569,101.337189 135.007751,100.840118 
	C134.309875,100.374123 133.734802,100.405190 133.159744,100.436264 
	C132.582138,101.280014 131.738220,102.047905 131.472519,102.980515 
	C130.253479,107.259590 128.052277,107.889717 124.343369,104.689316 
	C123.764961,104.083275 123.504471,103.946724 123.289810,103.567917 
	C123.247063,100.178909 123.097885,97.147766 122.965042,93.728004 
	C122.691437,91.117439 122.401497,88.895500 122.111565,86.673553 
	C122.111565,86.673553 122.125778,86.423119 122.497421,86.394302 
	C128.022095,86.188797 125.818924,91.385101 128.630707,94.226547 
	C129.577576,92.492851 130.155029,90.973709 131.128113,89.775970 
	C132.233124,88.415825 133.692017,87.343170 135.194183,86.256355 
	C135.391281,86.367180 135.843460,86.373039 135.988205,86.706451 
	C137.176590,90.445786 138.220230,93.851715 139.655960,98.537277 
	C140.552551,94.338196 140.995056,91.397514 141.883133,88.598190 
	C142.176636,87.673042 143.718109,86.440987 144.510925,86.557785 
	C145.467880,86.698761 146.235474,88.124954 146.998108,89.376373 
	C146.175613,94.131325 145.440079,98.504776 144.704529,102.878227 
	C142.888321,105.053879 141.620224,108.409943 137.402802,105.956741 
	C136.638824,104.527313 136.201187,103.258278 135.441406,101.846092 
z"/>
<path fill="#7D1A14" opacity="1.000000" stroke="none" 
	d="
M145.010422,103.067642 
	C145.440079,98.504776 146.175613,94.131325 147.360199,89.367050 
	C148.532730,88.972832 149.256195,88.969437 149.979675,88.966049 
	C151.069031,89.971733 152.158386,90.977417 153.623871,91.991547 
	C154.000000,92.000000 154.002441,92.002747 154.001862,92.377441 
	C154.001526,93.501633 154.001755,94.251114 154.001007,95.000305 
	C154.000000,95.000000 154.001831,95.002182 153.725800,95.084641 
	C153.632401,96.443848 153.815048,97.720581 153.997864,99.396408 
	C153.998611,100.858818 153.999161,101.922127 153.999725,102.985443 
	C152.005692,105.942009 150.011673,108.898582 147.559265,112.534821 
	C147.187759,111.096390 146.721039,109.365303 146.296997,107.623833 
	C145.944107,106.174568 145.641296,104.713112 145.010422,103.067642 
M147.771622,95.878807 
	C147.686691,96.599731 147.601761,97.320656 147.516830,98.041580 
	C147.835205,98.046738 148.153580,98.051903 148.471970,98.057060 
	C148.410110,97.336166 148.348267,96.615273 147.771622,95.878807 
z"/>
<path fill="#831C16" opacity="1.000000" stroke="none" 
	d="
M154.215912,102.695656 
	C153.999161,101.922127 153.998611,100.858818 153.999252,98.996964 
	C154.000916,97.133011 154.001373,96.067596 154.001831,95.002182 
	C154.001831,95.002182 154.000000,95.000000 154.207245,94.750572 
	C154.604950,93.669365 154.795380,92.837585 154.988815,91.755936 
	C154.991821,91.506073 154.997208,91.006355 154.997208,91.006355 
	C154.997208,91.006355 155.495453,91.003716 155.744507,91.003258 
	C155.473068,94.803825 154.952576,98.604843 154.215912,102.695656 
z"/>
<path fill="#801B14" opacity="1.000000" stroke="none" 
	d="
M144.272476,27.757978 
	C143.989594,28.289633 143.668106,28.816324 143.346603,29.343016 
	C142.872177,28.912464 142.397736,28.481913 141.923309,28.051361 
	C142.527832,28.007101 143.132370,27.962841 143.980499,27.797169 
	C144.224091,27.675756 144.233856,27.753017 144.272476,27.757978 
z"/>
<path fill="#811B14" opacity="1.000000" stroke="none" 
	d="
M15.187846,62.285500 
	C14.972758,60.906467 14.988338,59.858829 15.011927,58.418282 
	C18.794130,58.155994 20.666363,56.570541 21.162201,52.585773 
	C21.404573,50.637962 23.356413,48.902870 24.534513,47.071495 
	C24.941694,47.279179 25.348873,47.486862 25.756052,47.694542 
	C25.208664,44.329109 24.661276,40.963673 23.835018,35.883698 
	C27.422855,37.014992 30.186932,37.886543 32.936867,39.391342 
	C27.645266,45.683056 29.549170,52.685825 29.396389,59.286961 
	C29.390879,59.525169 30.436588,59.787708 31.003735,60.411140 
	C31.560705,62.457470 33.085133,64.984550 32.491444,65.665810 
	C28.913475,69.771614 30.830055,73.777046 31.989117,78.198402 
	C31.968485,78.737328 31.959665,78.952881 31.950846,79.168442 
	C31.950846,79.168442 31.674242,79.388969 31.535204,79.279648 
	C30.842293,79.102364 30.288420,79.034393 29.354012,78.600128 
	C29.219929,77.313202 29.466379,76.392570 29.776503,75.234085 
	C28.532877,75.234085 27.451977,75.234085 26.036936,75.234085 
	C26.782831,76.640854 27.380224,77.767540 27.977615,78.894234 
	C27.996796,79.351219 28.015976,79.808205 28.052000,80.606812 
	C27.047632,82.654831 25.408686,84.270065 25.140480,86.087578 
	C24.659136,89.349464 25.001457,92.732887 24.999489,96.530930 
	C24.155077,99.232841 23.310753,101.469345 22.441359,103.772255 
	C16.817686,100.748718 15.750436,97.486610 18.887365,93.040802 
	C17.687843,92.936745 16.732666,92.853889 16.948374,92.872597 
	C16.432619,82.672646 15.925566,72.644768 15.187846,62.285500 
z"/>
<path fill="#8A2921" opacity="1.000000" stroke="none" 
	d="
M32.000931,77.875023 
	C30.830055,73.777046 28.913475,69.771614 32.491444,65.665810 
	C33.085133,64.984550 31.560705,62.457470 31.372869,60.463146 
	C32.349354,60.735294 32.866997,61.592987 33.604359,61.873837 
	C36.696857,63.051762 39.855156,64.056946 42.989353,65.125397 
	C40.408337,67.514282 37.827320,69.903175 34.614983,72.876389 
	C39.758022,74.141006 43.932365,75.167435 49.126392,76.444595 
	C46.865128,77.734093 45.571674,78.471687 44.148643,79.512177 
	C43.120842,79.713211 42.222618,79.611374 41.213829,79.198349 
	C41.157921,78.624893 41.212574,78.362625 41.267231,78.100342 
	C41.107792,78.067451 40.948780,78.008186 40.788845,78.005592 
	C37.859608,77.958015 34.930256,77.917236 32.000931,77.875023 
z"/>
<path fill="#862C25" opacity="1.000000" stroke="none" 
	d="
M36.089279,89.782082 
	C36.097530,87.726791 36.097530,86.111084 36.097530,82.682640 
	C39.703640,84.373932 42.280598,85.461578 44.639324,86.905685 
	C44.840073,87.028587 43.876396,90.445473 42.948689,90.739647 
	C40.788792,91.424545 37.980282,94.493629 36.089279,89.782082 
z"/>
<path fill="#6C0705" opacity="1.000000" stroke="none" 
	d="
M31.989117,78.198402 
	C34.930256,77.917236 37.859608,77.958015 40.788845,78.005592 
	C40.948780,78.008186 41.107792,78.067451 41.267231,78.100342 
	C41.212574,78.362625 41.157921,78.624893 40.913494,79.037369 
	C38.088146,79.254562 35.452568,79.321564 32.383919,79.278503 
	C31.959665,78.952881 31.968485,78.737328 31.989117,78.198402 
z"/>
<path fill="#791A14" opacity="1.000000" stroke="none" 
	d="
M27.959875,85.514130 
	C27.900312,86.349770 27.825172,86.937332 27.750032,87.524887 
	C27.551750,87.515480 27.353468,87.506081 27.155186,87.496674 
	C27.155186,86.613213 27.143473,85.729393 27.169790,84.846718 
	C27.173136,84.734467 27.375334,84.628143 27.485409,84.519073 
	C27.638372,84.768066 27.791336,85.017059 27.959875,85.514130 
z"/>
<path fill="#8A2921" opacity="1.000000" stroke="none" 
	d="
M28.211559,78.884445 
	C27.380224,77.767540 26.782831,76.640854 26.036936,75.234085 
	C27.451977,75.234085 28.532877,75.234085 29.776503,75.234085 
	C29.466379,76.392570 29.219929,77.313202 28.941771,78.524734 
	C28.910063,78.815636 28.445501,78.874649 28.211559,78.884445 
z"/>
<path fill="#821D15" opacity="1.000000" stroke="none" 
	d="
M39.866344,35.366886 
	C39.396576,31.272228 41.403641,29.039400 45.031849,27.341681 
	C47.466328,26.202532 49.387363,23.966583 51.539246,22.222754 
	C52.303341,21.603552 52.989574,20.824545 53.849991,20.398439 
	C58.821186,17.936552 63.813568,15.514571 68.847656,13.184708 
	C70.013168,12.645290 71.376007,12.220176 72.636322,12.249321 
	C79.767998,12.414247 86.894302,12.820728 94.026093,12.968926 
	C98.676773,13.065569 103.437592,12.445548 107.119598,16.274740 
	C107.228722,16.388231 107.410049,16.504889 107.554733,16.501259 
	C119.426666,16.203257 124.811592,26.778980 133.190857,32.222950 
	C137.950577,35.315323 141.095306,40.939724 144.805466,45.554008 
	C145.396515,46.289074 145.131744,47.711285 145.265152,48.815517 
	C145.481140,50.603127 145.086243,52.851524 146.023376,54.097481 
	C149.913742,59.269890 148.745209,65.128937 149.058609,70.847000 
	C149.254517,74.421333 150.120575,77.954720 150.468704,81.527657 
	C150.564911,82.514961 149.882721,83.578117 149.070892,84.572945 
	C148.046341,83.705109 147.508560,82.870789 146.869858,81.926636 
	C146.471664,81.673462 146.213715,81.737236 145.743866,81.888580 
	C144.998505,81.513290 144.504364,81.257530 144.007111,80.535172 
	C143.297226,70.325325 142.789841,60.560341 141.731995,50.855354 
	C141.492126,48.654736 139.648941,46.371639 138.005737,44.635799 
	C134.774475,41.222343 129.165131,40.045025 128.499557,34.173088 
	C128.417160,33.446125 127.064072,32.880817 126.330666,32.207005 
	C122.928024,29.080843 119.651161,25.803131 116.088066,22.872978 
	C114.506592,21.572439 112.411919,20.325331 110.452446,20.150703 
	C100.229599,19.239658 89.969727,18.755020 79.733681,17.977901 
	C70.724464,17.293924 63.339924,21.637119 56.080154,25.848898 
	C53.126007,27.562759 50.989681,30.198584 46.979439,29.806366 
	C45.768661,29.687944 44.332771,31.871115 42.793884,33.251709 
	C42.392921,34.339966 42.198071,35.176517 41.700096,36.070225 
	C40.886761,35.873882 40.376553,35.620384 39.866344,35.366886 
z"/>
<path fill="#F1E8E4" opacity="1.000000" stroke="none" 
	d="
M39.558502,35.377167 
	C40.376553,35.620384 40.886761,35.873882 42.077271,36.184490 
	C47.854073,35.719799 49.906704,39.327011 51.865330,43.412365 
	C54.164261,53.843349 52.592644,58.647072 45.217873,63.995193 
	C44.685238,64.318649 44.152607,64.642105 43.304665,65.045479 
	C39.855156,64.056946 36.696857,63.051762 33.604359,61.873837 
	C32.866997,61.592987 32.349354,60.735294 31.361515,60.090912 
	C30.436588,59.787708 29.390879,59.525169 29.396389,59.286961 
	C29.549170,52.685825 27.645266,45.683056 33.029533,39.707596 
	C34.161926,38.538872 35.187511,37.687141 36.262619,36.487015 
	C37.291649,35.888226 38.271152,35.637833 39.558502,35.377167 
M45.623096,43.299397 
	C43.439556,42.684090 40.569317,40.932030 39.241890,41.733917 
	C37.482231,42.796906 36.928036,45.855396 35.678158,48.928288 
	C35.660942,50.230762 35.517963,51.546291 35.651501,52.833122 
	C35.974758,55.948170 36.778683,58.628300 40.602959,59.236057 
	C44.393303,59.838425 46.001980,57.147942 46.362003,54.630039 
	C46.855316,51.179932 46.040569,47.542789 45.623096,43.299397 
z"/>
<path fill="#7E281F" opacity="1.000000" stroke="none" 
	d="
M146.970779,82.036476 
	C147.508560,82.870789 148.046341,83.705109 148.786575,84.767563 
	C149.396805,86.169617 149.804581,87.343536 150.096008,88.741745 
	C149.256195,88.969437 148.532730,88.972832 147.447144,88.985550 
	C146.235474,88.124954 145.467880,86.698761 144.510925,86.557785 
	C143.718109,86.440987 142.176636,87.673042 141.883133,88.598190 
	C140.995056,91.397514 140.552551,94.338196 139.655960,98.537277 
	C138.220230,93.851715 137.176590,90.445786 136.134155,86.355202 
	C136.437912,84.453201 136.740494,83.235855 137.274963,82.019821 
	C137.506851,82.021133 137.970642,82.019180 138.050751,82.312035 
	C138.748322,83.399300 139.365753,84.193703 139.916260,85.027374 
	C139.849335,85.066635 139.843414,85.253212 139.843414,85.253212 
	C139.843414,85.253212 140.012054,85.016830 140.395279,85.008957 
	C141.855743,83.667984 142.932983,82.334869 144.010223,81.001762 
	C144.504364,81.257530 144.998505,81.513290 145.987900,81.893433 
	C146.483154,82.017807 146.970779,82.036476 146.970779,82.036476 
M139.529190,88.502991 
	C139.529190,88.502991 139.484756,88.520401 139.529190,88.502991 
z"/>
<path fill="#7D1A14" opacity="1.000000" stroke="none" 
	d="
M154.807373,91.146896 
	C154.997208,91.006355 154.991821,91.506073 154.743073,91.754631 
	C154.494308,92.003189 154.002441,92.002747 154.002441,92.002747 
	C154.002441,92.002747 154.000000,92.000000 153.999496,91.999207 
	C154.171021,91.731712 154.377213,91.494720 154.807373,91.146896 
z"/>
<path fill="#791A14" opacity="1.000000" stroke="none" 
	d="
M153.509430,56.492020 
	C153.517395,56.512981 153.501450,56.471054 153.509430,56.492020 
z"/>
<path fill="#8A211A" opacity="1.000000" stroke="none" 
	d="
M137.970642,82.019180 
	C137.970642,82.019180 137.506851,82.021133 137.012482,81.882118 
	C136.011093,83.210587 135.504089,84.678062 134.997086,86.145538 
	C133.692017,87.343170 132.233124,88.415825 131.128113,89.775970 
	C130.155029,90.973709 129.577576,92.492851 128.630707,94.226547 
	C125.818924,91.385101 128.022095,86.188797 122.519905,86.270920 
	C121.017616,85.518501 119.864471,84.860649 118.533714,84.101471 
	C125.642105,78.685173 127.813522,67.362465 123.194748,64.458641 
	C120.807579,66.199112 122.213333,72.110611 117.207222,70.588486 
	C116.006393,70.223366 115.714027,66.870422 115.187592,64.156250 
	C115.386864,58.629883 115.412193,53.838867 115.414429,49.047840 
	C115.415863,45.968048 114.693901,43.394073 110.695099,42.817429 
	C105.846542,41.481934 101.338203,41.751568 96.908714,43.176407 
	C96.628868,43.266422 96.674942,44.369659 96.694748,45.363472 
	C96.768028,46.485077 96.715958,47.244728 96.426163,48.012993 
	C96.188438,48.021606 95.717224,48.087345 95.399841,48.059639 
	C94.658119,48.041561 94.233765,48.051189 93.514282,47.852020 
	C92.127502,43.944279 89.675034,42.599445 85.894363,43.142506 
	C84.305534,43.370728 82.644463,43.096092 80.713966,43.185471 
	C77.481285,43.707111 76.253021,49.377270 71.801361,45.792763 
	C69.330399,44.736313 67.166901,43.882652 64.864990,42.801407 
	C62.809700,42.852749 60.892826,43.131672 58.648643,43.549133 
	C57.855976,43.641045 57.390614,43.594421 56.720718,43.388466 
	C54.982780,43.150444 53.449364,43.071758 51.915951,42.993073 
	C49.906704,39.327011 47.854073,35.719799 42.380398,36.127335 
	C42.198071,35.176517 42.392921,34.339966 43.013992,33.441704 
	C50.589005,34.322334 57.748070,35.494606 61.795677,27.076031 
	C62.296082,26.035242 64.209633,25.564913 65.553833,25.056061 
	C76.110260,21.059893 87.157143,21.716007 98.078407,22.113832 
	C105.370018,22.379442 112.768669,23.352377 116.776375,31.041309 
	C117.286507,32.020031 118.650589,32.549217 119.176384,33.525158 
	C120.177666,35.383667 121.755913,37.552383 121.480247,39.343884 
	C120.963425,42.702549 122.365776,43.952610 125.060616,44.790821 
	C126.644897,45.283604 128.179565,46.034000 129.797272,46.301666 
	C133.658356,46.940536 134.815948,48.715328 134.207321,52.790344 
	C133.692413,56.237946 133.307022,61.382332 135.262955,63.212914 
	C141.608200,69.151543 138.751678,75.558228 137.970642,82.019180 
z"/>
<path fill="#EBDDD9" opacity="1.000000" stroke="none" 
	d="
M121.798218,86.634224 
	C122.401497,88.895500 122.691437,91.117439 122.619110,93.538994 
	C121.483009,95.095947 120.709175,96.453300 119.513901,97.972397 
	C115.426666,98.332832 111.760880,98.531502 107.760170,98.748322 
	C108.865616,103.343987 111.825539,102.091873 114.406601,101.989952 
	C115.894096,101.931206 117.397018,102.263245 118.878159,102.673828 
	C118.848869,103.262062 118.834435,103.595863 118.820000,103.929665 
	C118.490608,104.239594 118.161209,104.549515 117.442558,105.254410 
	C116.372131,106.157776 115.690971,106.666176 115.009811,107.174576 
	C111.926270,106.828018 108.842720,106.481461 105.406174,106.013306 
	C104.297630,104.988647 103.542084,104.085564 102.504623,102.633240 
	C98.996269,95.980110 102.379768,91.087746 105.155319,86.083946 
	C109.999329,86.724129 115.687271,84.011536 119.229744,90.051949 
	C120.115524,88.694061 120.800194,87.644478 121.798218,86.634224 
z"/>
<path fill="#F4EDEA" opacity="1.000000" stroke="none" 
	d="
M56.925247,43.547798 
	C57.390614,43.594421 57.855976,43.641045 59.031296,43.689987 
	C61.495296,43.471203 63.249344,43.250099 65.003395,43.028992 
	C67.166901,43.882652 69.330399,44.736313 71.929794,46.148766 
	C72.707130,50.715172 73.048584,54.722786 73.390045,58.730400 
	C69.661995,64.765640 68.905823,65.063408 61.556629,63.096355 
	C61.423126,65.713608 61.294010,68.244804 61.147182,71.123352 
	C59.329258,71.409782 57.604832,71.681480 55.471268,71.606171 
	C55.093323,70.870033 55.124516,70.480911 55.508415,69.836121 
	C55.864487,61.403599 55.867851,53.226749 55.981785,44.755131 
	C56.369987,44.156178 56.647617,43.851990 56.925247,43.547798 
M61.999756,53.455307 
	C61.997261,54.287975 61.761845,55.211231 62.042816,55.933651 
	C62.560291,57.264149 63.381256,58.476612 64.075745,59.738262 
	C65.404259,58.776817 67.358711,58.075089 67.894165,56.784584 
	C68.489937,55.348709 68.231079,53.165497 67.525299,51.702797 
	C66.928139,50.465206 65.162308,49.791527 63.913673,48.868290 
	C63.275013,50.096931 62.636356,51.325577 61.999756,53.455307 
z"/>
<path fill="#EFE6E1" opacity="1.000000" stroke="none" 
	d="
M81.016235,43.050053 
	C82.644463,43.096092 84.305534,43.370728 85.894363,43.142506 
	C89.675034,42.599445 92.127502,43.944279 93.542145,48.283180 
	C93.931923,50.945374 93.998718,52.967617 93.895157,55.150803 
	C93.494843,55.523525 93.257431,55.726604 92.558594,55.828026 
	C89.197800,55.735069 86.290993,55.735069 82.909584,55.735069 
	C83.068901,59.564980 84.343376,60.563141 87.774887,59.303493 
	C89.327980,58.733379 91.228752,59.110420 93.095078,59.349583 
	C92.240471,60.865574 91.485291,62.746376 90.235916,63.170147 
	C87.993484,63.930752 85.454109,63.815895 83.038818,64.066879 
	C83.038818,64.066879 82.738487,63.834274 82.381058,63.630207 
	C81.674736,63.341942 81.325844,63.257744 80.976952,63.173546 
	C80.976952,63.173546 80.683434,62.919720 80.338203,62.636948 
	C79.340591,61.842892 78.688217,61.331604 78.035843,60.820312 
	C78.076782,60.507439 77.971855,60.255253 77.434761,59.589268 
	C74.490784,52.809593 77.114235,47.775909 81.016235,43.050053 
z"/>
<path fill="#F5EEEA" opacity="1.000000" stroke="none" 
	d="
M96.663887,48.004383 
	C96.715958,47.244728 96.768028,46.485077 96.909241,45.037384 
	C101.667122,44.183517 106.335854,44.017693 111.286011,44.103767 
	C112.381966,46.585876 113.696571,48.770901 113.903038,51.056046 
	C114.288422,55.321312 114.029976,59.644749 114.039444,63.943985 
	C113.002899,64.247169 111.966354,64.550362 110.429520,64.457748 
	C109.566742,60.406822 109.341576,56.730461 108.781509,53.105854 
	C108.517258,51.395679 107.610657,49.784760 106.995110,48.128864 
	C105.464050,48.482090 103.932983,48.835316 102.029579,49.274445 
	C102.029579,54.334942 102.029579,59.273266 102.029579,64.735916 
	C100.208794,64.655045 98.824249,64.593552 97.206978,63.767670 
	C96.830971,59.996922 96.687698,56.990559 96.614151,53.590790 
	C96.631844,52.137684 96.579788,51.077980 96.651245,49.693386 
	C96.737793,48.913792 96.700836,48.459087 96.663887,48.004383 
z"/>
<path fill="#EEE1DE" opacity="1.000000" stroke="none" 
	d="
M85.923782,103.549805 
	C81.307983,108.453522 79.171837,107.989540 77.079369,101.943970 
	C75.382866,97.042450 73.654579,92.151932 71.940392,87.256538 
	C72.335152,86.763397 72.729919,86.270256 73.124680,85.777107 
	C74.855431,86.807587 76.586174,87.838058 78.575760,89.128418 
	C79.540108,91.398285 80.245605,93.408272 80.951103,95.418266 
	C81.405273,95.373985 81.859444,95.329704 82.313614,95.285423 
	C83.133713,92.692192 83.238998,89.243698 84.997856,87.773689 
	C86.430336,86.576462 89.842117,87.747459 92.740044,87.922119 
	C93.069611,88.634171 93.035355,89.292412 93.001106,89.950661 
	C92.437172,89.173378 91.873245,88.396095 91.309311,87.618813 
	C90.838699,88.339218 90.289612,89.021431 89.916008,89.789047 
	C89.365341,90.920471 88.939690,92.112740 88.186554,93.997322 
	C87.497047,97.096085 87.081779,99.476631 86.666512,101.857170 
	C86.426140,102.327370 86.185776,102.797577 85.923782,103.549805 
z"/>
<path fill="#8A2921" opacity="1.000000" stroke="none" 
	d="
M56.720718,43.388466 
	C56.647617,43.851990 56.369987,44.156178 55.735901,45.084343 
	C55.304871,53.836140 55.230289,61.963959 55.155708,70.091782 
	C55.124516,70.480911 55.093323,70.870033 55.070145,71.552605 
	C51.000278,74.354591 50.266613,71.286415 49.077103,68.458183 
	C48.394108,66.834267 47.031258,65.496300 45.596169,64.012398 
	C52.592644,58.647072 54.164261,53.843349 51.865330,43.412365 
	C53.449364,43.071758 54.982780,43.150444 56.720718,43.388466 
z"/>
<path fill="#F3EBE5" opacity="1.000000" stroke="none" 
	d="
M92.924667,90.417992 
	C93.035355,89.292412 93.069611,88.634171 93.089378,87.646088 
	C93.074890,87.316246 93.091499,86.831879 93.518555,86.623093 
	C100.210526,85.387634 97.495377,90.338783 98.225189,93.412735 
	C98.046310,98.246140 97.938240,102.616379 97.708420,107.181053 
	C97.586670,107.375481 97.529152,107.830666 97.529152,107.830666 
	C93.948662,108.032547 92.556732,106.387917 92.774849,102.792839 
	C93.014877,98.836746 92.841507,94.855568 92.924667,90.417992 
z"/>
<path fill="#8C2C20" opacity="1.000000" stroke="none" 
	d="
M97.830170,106.986626 
	C97.938240,102.616379 98.046310,98.246140 98.414528,93.142593 
	C99.141762,90.950798 99.608841,89.492287 100.075928,88.033783 
	C101.384628,86.836601 100.889687,82.158859 104.896698,85.876801 
	C102.379768,91.087746 98.996269,95.980110 102.254684,102.471603 
	C101.474525,104.058990 100.662392,105.258766 99.562569,106.725227 
	C98.793304,106.990150 98.311737,106.988388 97.830170,106.986626 
z"/>
<path fill="#792219" opacity="1.000000" stroke="none" 
	d="
M99.991829,87.670334 
	C99.608841,89.492287 99.141762,90.950798 98.485336,92.679443 
	C97.495377,90.338783 100.210526,85.387634 93.535904,86.381386 
	C92.622688,84.430077 88.596024,83.392120 92.017654,80.797516 
	C93.485222,81.989433 94.495926,83.319389 95.808067,83.768372 
	C96.400505,83.971092 97.593086,82.419922 98.513382,81.664490 
	C97.343285,80.531227 96.173195,79.397957 95.003105,78.264687 
	C98.575783,75.740753 99.685043,77.820099 99.941437,81.031715 
	C100.107285,83.109299 99.930809,85.214218 99.991829,87.670334 
z"/>
<path fill="#7B221F" opacity="1.000000" stroke="none" 
	d="
M80.713966,43.185471 
	C77.114235,47.775909 74.490784,52.809593 77.237526,59.508179 
	C76.279152,59.580620 75.231720,59.259651 73.787155,58.834541 
	C73.048584,54.722786 72.707130,50.715172 72.237244,46.351555 
	C76.253021,49.377270 77.481285,43.707111 80.713966,43.185471 
z"/>
<path fill="#7C1914" opacity="1.000000" stroke="none" 
	d="
M93.012573,55.920982 
	C93.257431,55.726604 93.494843,55.523525 94.197472,55.159103 
	C95.070358,54.983078 95.470596,54.959698 95.874939,55.304337 
	C95.859962,56.162624 95.840874,56.652893 95.649063,57.267921 
	C95.277328,57.604553 95.129906,57.847721 95.059029,58.525383 
	C95.109108,60.273537 95.134224,61.618492 95.159340,62.963444 
	C91.200401,63.547279 87.241463,64.131111 83.160675,64.390915 
	C85.454109,63.815895 87.993484,63.930752 90.235916,63.170147 
	C91.485291,62.746376 92.240471,60.865574 93.105530,58.957649 
	C92.999313,57.489597 93.005943,56.705292 93.012573,55.920982 
z"/>
<path fill="#82352A" opacity="1.000000" stroke="none" 
	d="
M107.008728,48.588299 
	C107.610657,49.784760 108.517258,51.395679 108.781509,53.105854 
	C109.341576,56.730461 109.566742,60.406822 110.084793,64.451561 
	C109.181122,63.538723 107.361946,62.319843 107.207787,60.917881 
	C106.777176,57.001717 107.035797,53.009769 107.008728,48.588299 
z"/>
<path fill="#EAD9D6" opacity="1.000000" stroke="none" 
	d="
M94.841629,78.299034 
	C96.173195,79.397957 97.343285,80.531227 98.513382,81.664490 
	C97.593086,82.419922 96.400505,83.971092 95.808067,83.768372 
	C94.495926,83.319389 93.485222,81.989433 92.290497,80.652924 
	C92.229416,80.287094 92.145348,80.201912 92.379211,80.121643 
	C92.800468,79.697227 92.987854,79.353073 93.175247,79.008926 
	C93.175247,79.008926 93.007393,78.971619 93.328751,78.973648 
	C93.963760,78.655594 94.277412,78.335518 94.591064,78.015434 
	C94.591064,78.015434 94.680145,78.333382 94.841629,78.299034 
z"/>
<path fill="#7B2D25" opacity="1.000000" stroke="none" 
	d="
M114.281090,63.967373 
	C114.029976,59.644749 114.288422,55.321312 113.903038,51.056046 
	C113.696571,48.770901 112.381966,46.585876 111.286003,43.894989 
	C111.004578,43.434303 110.993050,43.016872 110.993050,43.016872 
	C114.693901,43.394073 115.415863,45.968048 115.414429,49.047840 
	C115.412193,53.838867 115.386864,58.629883 115.189056,63.725010 
	C115.006798,64.029114 114.522743,63.990765 114.281090,63.967373 
z"/>
<path fill="#80342A" opacity="1.000000" stroke="none" 
	d="
M95.821793,57.143166 
	C95.840874,56.652893 95.859962,56.162624 95.945786,55.115906 
	C96.096367,54.281311 96.273674,54.089554 96.544418,53.984196 
	C96.687698,56.990559 96.830971,59.996922 96.971466,63.447624 
	C96.508881,63.671558 96.049080,63.451149 95.374313,63.097092 
	C95.134224,61.618492 95.109108,60.273537 95.227257,58.392357 
	C95.584648,57.658779 95.735077,57.421127 95.821793,57.143166 
z"/>
<path fill="#8A2921" opacity="1.000000" stroke="none" 
	d="
M46.413429,73.330688 
	C46.923252,73.295471 47.318577,73.391502 47.713902,73.487534 
	C47.629478,73.594742 47.523174,73.805016 47.464165,73.792488 
	C47.070122,73.708847 46.686169,73.577667 46.413429,73.330688 
z"/>
<path fill="#7B221F" opacity="1.000000" stroke="none" 
	d="
M78.120743,61.148750 
	C78.688217,61.331604 79.340591,61.842892 80.144333,62.629272 
	C79.599014,62.428638 78.902336,61.952911 78.120743,61.148750 
z"/>
<path fill="#7C1A14" opacity="1.000000" stroke="none" 
	d="
M75.497284,83.508911 
	C75.493546,83.494553 75.501015,83.523262 75.497284,83.508911 
z"/>
<path fill="#792219" opacity="1.000000" stroke="none" 
	d="
M92.960625,79.195206 
	C92.987854,79.353073 92.800468,79.697227 92.337883,80.164917 
	C92.290466,79.986145 92.518234,79.683815 92.960625,79.195206 
z"/>
<path fill="#792219" opacity="1.000000" stroke="none" 
	d="
M94.308945,78.183647 
	C94.277412,78.335518 93.963760,78.655594 93.309631,79.057480 
	C93.321716,78.876808 93.674271,78.614334 94.308945,78.183647 
z"/>
<path fill="#7B221F" opacity="1.000000" stroke="none" 
	d="
M81.187439,63.326225 
	C81.325844,63.257744 81.674736,63.341942 82.191528,63.642662 
	C82.038933,63.732422 81.718430,63.605659 81.187439,63.326225 
z"/>
<path fill="#88211A" opacity="1.000000" stroke="none" 
	d="
M86.917557,102.077637 
	C87.081779,99.476631 87.497047,97.096085 88.094017,94.351913 
	C92.378517,95.995224 92.662582,98.095367 88.755608,106.011002 
	C88.042625,104.342941 87.605614,103.320526 86.917557,102.077637 
z"/>
<path fill="#88211A" opacity="1.000000" stroke="none" 
	d="
M76.433929,110.999062 
	C76.851974,110.467941 77.704788,109.938698 78.783607,109.206940 
	C79.433029,108.989365 79.856438,108.974319 80.842697,109.135376 
	C82.604713,109.208435 83.803879,109.105392 85.003052,109.002350 
	C86.820229,108.673775 88.637405,108.345192 90.454590,108.016617 
	C90.552582,108.244675 90.650581,108.472733 90.748581,108.700790 
	C89.663139,109.341354 88.577698,109.981918 87.519836,110.606209 
	C88.144157,110.973358 88.765587,111.338799 89.387016,111.704239 
	C89.304222,111.988373 89.221436,112.272507 89.138649,112.556641 
	C85.048660,112.038071 80.958679,111.519508 76.433929,110.999062 
z"/>
<path fill="#93221B" opacity="1.000000" stroke="none" 
	d="
M85.002701,108.760452 
	C83.803879,109.105392 82.604713,109.208435 81.160507,109.130356 
	C82.037811,108.644539 83.160156,108.339867 84.641518,108.034973 
	C85.000542,108.034760 85.002342,108.518555 85.002701,108.760452 
z"/>
<path fill="#88211A" opacity="1.000000" stroke="none" 
	d="
M97.708420,107.181053 
	C98.311737,106.988388 98.793304,106.990150 99.635971,106.991241 
	C99.397758,107.261719 98.798431,107.532867 97.864136,107.817337 
	C97.529152,107.830666 97.586670,107.375481 97.708420,107.181053 
z"/>
<path fill="#88211A" opacity="1.000000" stroke="none" 
	d="
M96.992867,111.004929 
	C96.986107,111.009865 96.749825,110.846077 96.749825,110.846077 
	C96.749825,110.846077 96.931595,110.853851 96.970444,110.920288 
	C97.009300,110.986725 96.999626,111.000000 96.992867,111.004929 
z"/>
<path fill="#88211A" opacity="1.000000" stroke="none" 
	d="
M73.988220,106.271957 
	C74.080147,106.282356 74.171883,106.533363 74.125008,106.889084 
	C73.986389,106.993797 73.988045,106.512573 73.988220,106.271957 
z"/>
<path fill="#8D2C20" opacity="1.000000" stroke="none" 
	d="
M119.935333,97.810646 
	C120.709175,96.453300 121.483009,95.095947 122.602783,93.927612 
	C123.097885,97.147766 123.247063,100.178909 122.896858,103.577911 
	C121.612816,103.961205 120.828156,103.976646 120.043495,103.992081 
	C119.839699,103.980026 119.635902,103.967987 119.126053,103.942802 
	C118.834435,103.595863 118.848869,103.262062 118.959030,102.286667 
	C119.348274,100.366928 119.641800,99.088783 119.935333,97.810646 
z"/>
<path fill="#88211A" opacity="1.000000" stroke="none" 
	d="
M120.049538,104.326782 
	C120.828156,103.976646 121.612816,103.961205 122.790436,103.935776 
	C123.504471,103.946724 123.764961,104.083275 124.025764,104.553146 
	C123.271141,105.583252 122.455605,106.395615 121.640076,107.207985 
	C121.111908,106.359154 120.583740,105.510323 120.049538,104.326782 
z"/>
<path fill="#88211A" opacity="1.000000" stroke="none" 
	d="
M115.140259,107.485710 
	C115.690971,106.666176 116.372131,106.157776 117.344109,105.470566 
	C118.035072,106.268738 118.435226,107.245712 118.917480,108.609955 
	C117.756630,108.597099 116.513672,108.196976 115.140259,107.485710 
z"/>
<path fill="#88211A" opacity="1.000000" stroke="none" 
	d="
M133.593948,100.605072 
	C133.734802,100.405190 134.309875,100.374123 134.903503,100.689758 
	C134.624115,100.948944 134.326141,100.861420 133.593948,100.605072 
z"/>
<path fill="#851E17" opacity="1.000000" stroke="none" 
	d="
M135.194183,86.256363 
	C135.504089,84.678062 136.011093,83.210587 136.780579,81.880798 
	C136.740494,83.235855 136.437912,84.453201 135.989410,86.021790 
	C135.843460,86.373039 135.391281,86.367180 135.194183,86.256363 
z"/>
<path fill="#831C16" opacity="1.000000" stroke="none" 
	d="
M148.029022,95.886597 
	C148.348267,96.615273 148.410110,97.336166 148.471970,98.057060 
	C148.153580,98.051903 147.835205,98.046738 147.516830,98.041580 
	C147.601761,97.320656 147.686691,96.599731 148.029022,95.886597 
z"/>
<path fill="#791A14" opacity="1.000000" stroke="none" 
	d="
M153.725800,95.084641 
	C154.001373,96.067596 154.000916,97.133011 153.999069,98.597870 
	C153.815048,97.720581 153.632401,96.443848 153.725800,95.084641 
z"/>
<path fill="#791A14" opacity="1.000000" stroke="none" 
	d="
M154.001862,92.377441 
	C154.002441,92.002747 154.494308,92.003189 154.740051,92.004494 
	C154.795380,92.837585 154.604950,93.669365 154.208252,94.750870 
	C154.001755,94.251114 154.001526,93.501633 154.001862,92.377441 
z"/>
<path fill="#851E17" opacity="1.000000" stroke="none" 
	d="
M138.050751,82.312035 
	C138.751678,75.558228 141.608200,69.151543 135.262955,63.212914 
	C133.307022,61.382332 133.692413,56.237946 134.207321,52.790344 
	C134.815948,48.715328 133.658356,46.940536 129.797272,46.301666 
	C128.179565,46.034000 126.644897,45.283604 125.060616,44.790821 
	C122.365776,43.952610 120.963425,42.702549 121.480247,39.343884 
	C121.755913,37.552383 120.177666,35.383667 119.176384,33.525158 
	C118.650589,32.549217 117.286507,32.020031 116.776375,31.041309 
	C112.768669,23.352377 105.370018,22.379442 98.078407,22.113832 
	C87.157143,21.716007 76.110260,21.059893 65.553833,25.056061 
	C64.209633,25.564913 62.296082,26.035242 61.795677,27.076031 
	C57.748070,35.494606 50.589005,34.322334 43.220108,33.189999 
	C44.332771,31.871115 45.768661,29.687944 46.979439,29.806366 
	C50.989681,30.198584 53.126007,27.562759 56.080154,25.848898 
	C63.339924,21.637119 70.724464,17.293924 79.733681,17.977901 
	C89.969727,18.755020 100.229599,19.239658 110.452446,20.150703 
	C112.411919,20.325331 114.506592,21.572439 116.088066,22.872978 
	C119.651161,25.803131 122.928024,29.080843 126.330666,32.207005 
	C127.064072,32.880817 128.417160,33.446125 128.499557,34.173088 
	C129.165131,40.045025 134.774475,41.222343 138.005737,44.635799 
	C139.648941,46.371639 141.492126,48.654736 141.731995,50.855354 
	C142.789841,60.560341 143.297226,70.325325 144.007111,80.535172 
	C142.932983,82.334869 141.855743,83.667984 140.389114,85.000717 
	C139.999725,85.000336 139.983200,84.988113 139.983200,84.988113 
	C139.365753,84.193703 138.748322,83.399300 138.050751,82.312035 
z"/>
<path fill="#851E17" opacity="1.000000" stroke="none" 
	d="
M146.869858,81.926636 
	C146.970779,82.036476 146.483154,82.017807 146.239120,82.012955 
	C146.213715,81.737236 146.471664,81.673462 146.869858,81.926636 
z"/>
<path fill="#88231B" opacity="1.000000" stroke="none" 
	d="
M45.786423,43.985806 
	C46.040569,47.542789 46.855316,51.179932 46.362003,54.630039 
	C46.001980,57.147942 44.393303,59.838425 40.602959,59.236057 
	C36.778683,58.628300 35.974758,55.948170 35.651501,52.833122 
	C35.517963,51.546291 35.660942,50.230762 36.007988,48.306492 
	C38.323936,43.479851 41.467823,42.232452 45.786423,43.985806 
z"/>
<path fill="#77241D" opacity="1.000000" stroke="none" 
	d="
M45.704758,43.642601 
	C41.467823,42.232452 38.323936,43.479851 36.096821,47.870529 
	C36.928036,45.855396 37.482231,42.796906 39.241890,41.733917 
	C40.569317,40.932030 43.439556,42.684090 45.704758,43.642601 
z"/>
<path fill="#851E17" opacity="1.000000" stroke="none" 
	d="
M139.506973,88.511696 
	C139.484756,88.520401 139.529190,88.502991 139.506973,88.511696 
z"/>
<path fill="#851E17" opacity="1.000000" stroke="none" 
	d="
M140.005890,85.008583 
	C140.012054,85.016830 139.843414,85.253212 139.843414,85.253212 
	C139.843414,85.253212 139.849335,85.066635 139.916260,85.027374 
	C139.983200,84.988113 139.999725,85.000336 140.005890,85.008583 
z"/>
<path fill="#80342A" opacity="1.000000" stroke="none" 
	d="
M110.695099,42.817429 
	C110.993050,43.016872 111.004578,43.434303 111.004578,43.643085 
	C106.335854,44.017693 101.667122,44.183517 96.783890,44.675430 
	C96.674942,44.369659 96.628868,43.266422 96.908714,43.176407 
	C101.338203,41.751568 105.846542,41.481934 110.695099,42.817429 
z"/>
<path fill="#6F0707" opacity="1.000000" stroke="none" 
	d="
M96.614159,53.590790 
	C96.273674,54.089554 96.096367,54.281311 95.941666,54.747890 
	C95.470596,54.959698 95.070358,54.983078 94.367813,54.998158 
	C93.998718,52.967617 93.931923,50.945374 93.837280,48.491974 
	C94.233765,48.051189 94.658119,48.041561 95.456497,48.321999 
	C96.062935,49.080795 96.295341,49.549534 96.527740,50.018276 
	C96.579788,51.077980 96.631844,52.137684 96.614159,53.590790 
z"/>
<path fill="#8A2921" opacity="1.000000" stroke="none" 
	d="
M64.864990,42.801407 
	C63.249344,43.250099 61.495296,43.471203 59.358597,43.551453 
	C60.892826,43.131672 62.809700,42.852749 64.864990,42.801407 
z"/>
<path fill="#80342A" opacity="1.000000" stroke="none" 
	d="
M96.651245,49.693386 
	C96.295341,49.549534 96.062935,49.080795 95.773880,48.349701 
	C95.717224,48.087345 96.188438,48.021606 96.426163,48.012993 
	C96.700836,48.459087 96.737793,48.913792 96.651245,49.693386 
z"/>
<path fill="#792019" opacity="1.000000" stroke="none" 
	d="
M119.513901,97.972397 
	C119.641800,99.088783 119.348274,100.366928 118.973877,102.032227 
	C117.397018,102.263245 115.894096,101.931206 114.406601,101.989952 
	C111.825539,102.091873 108.865616,103.343987 107.760170,98.748322 
	C111.760880,98.531502 115.426666,98.332832 119.513901,97.972397 
z"/>
<path fill="#8E271D" opacity="1.000000" stroke="none" 
	d="
M61.998726,53.004761 
	C62.636356,51.325577 63.275013,50.096931 63.913673,48.868290 
	C65.162308,49.791527 66.928139,50.465206 67.525299,51.702797 
	C68.231079,53.165497 68.489937,55.348709 67.894165,56.784584 
	C67.358711,58.075089 65.404259,58.776817 64.075745,59.738262 
	C63.381256,58.476612 62.560291,57.264149 62.042816,55.933651 
	C61.761845,55.211231 61.997261,54.287975 61.998726,53.004761 
z"/>
<path fill="#6D0305" opacity="1.000000" stroke="none" 
	d="
M55.508415,69.836121 
	C55.230289,61.963959 55.304871,53.836140 55.625336,45.379105 
	C55.867851,53.226749 55.864487,61.403599 55.508415,69.836121 
z"/>
<path fill="#6F0707" opacity="1.000000" stroke="none" 
	d="
M92.558594,55.828026 
	C93.005943,56.705292 92.999313,57.489597 92.982239,58.665840 
	C91.228752,59.110420 89.327980,58.733379 87.774887,59.303493 
	C84.343376,60.563141 83.068901,59.564980 82.909584,55.735069 
	C86.290993,55.735069 89.197800,55.735069 92.558594,55.828026 
z"/>
<path fill="#6F0707" opacity="1.000000" stroke="none" 
	d="
M95.649063,57.267921 
	C95.735077,57.421127 95.584648,57.658779 95.202293,57.989151 
	C95.129906,57.847721 95.277328,57.604553 95.649063,57.267921 
z"/>
</svg>